<svg width="129" height="85" viewBox="0 0 129 85" fill="none" xmlns="http://www.w3.org/2000/svg">
<path fill-rule="evenodd" clip-rule="evenodd" d="M65.6748 83.1026C80.6962 75.5319 90.9998 59.969 90.9998 41.9995C90.9998 24.0301 80.6962 8.46718 65.6748 0.896484C84.7084 4.89353 98.9998 21.7776 98.9998 41.9995C98.9998 62.2215 84.7084 79.1056 65.6748 83.1026Z" fill="white"/>
<path fill-rule="evenodd" clip-rule="evenodd" d="M80.6748 83.1026C95.6962 75.5319 106 59.969 106 41.9995C106 24.0301 95.6962 8.46718 80.6748 0.896484C99.7084 4.89353 114 21.7776 114 41.9995C114 62.2215 99.7084 79.1056 80.6748 83.1026Z" fill="white"/>
<path fill-rule="evenodd" clip-rule="evenodd" d="M95.6748 83.1026C110.696 75.5319 121 59.969 121 41.9995C121 24.0301 110.696 8.46718 95.6748 0.896484C114.708 4.89353 129 21.7776 129 41.9995C129 62.2215 114.708 79.1056 95.6748 83.1026Z" fill="white"/>
</svg>
